<svg xmlns="http://www.w3.org/2000/svg" width="162" height="148"><circle cx="88.3" cy="74" r="70" fill="#333" stroke="#FFF" stroke-width="4"/><path fill="#0071BC" stroke="#FFF" stroke-width="4" d="M22.4 95.4c-.8-.4-18.7-9.6-18.7-34.3v-1.4l19.5-7.5 19.5 7.5v1.4c0 24.2-17.8 33.9-18.5 34.3l-.9.5-.9-.5z"/><path fill="#FFF" d="M59.8 72h-.1v15.7h-5.1V59.3l16.1 17h.1V60.6h5v28.3L59.8 72zm35.1-4.9c-.8-.6-1.7-1.2-2.8-1.5-1.1-.4-2.3-.6-3.6-.6-1.1 0-2 .2-2.7.7-.7.5-1.2 1-1.5 1.6-.2.6-.2 1.2.2 1.9s1.2 1.1 2.4 1.4l4.3 1.1c1 .3 2 .6 2.9 1.1.9.5 1.7 1 2.4 1.7s1.2 1.5 1.6 2.3c.4.9.6 1.9.6 3 0 1.2-.3 2.3-.8 3.3s-1.3 1.9-2.2 2.7-2 1.3-3.2 1.8c-1.2.4-2.6.6-4 .6-1.9 0-3.8-.3-5.5-.9-1.7-.6-3.2-1.5-4.5-2.6l2.9-4.1c.8.8 1.9 1.5 3.1 2s2.6.7 4 .7c.8 0 1.6-.1 2.3-.4s1.2-.6 1.7-1c.4-.4.7-.9.9-1.4.2-.5.2-1 0-1.5-.1-.5-.5-1-1-1.4-.5-.4-1.2-.8-2.1-1l-4.6-1.2c-.9-.2-1.8-.6-2.6-1s-1.5-1-2.1-1.6c-.6-.6-1.1-1.3-1.4-2.2-.3-.8-.5-1.7-.5-2.7 0-1.1.3-2.1.8-3.1s1.2-1.8 2.1-2.5c.9-.7 1.9-1.3 3-1.7 1.2-.4 2.4-.6 3.7-.6 1.8 0 3.5.3 5 .8 1.6.5 3 1.3 4.2 2.2l-3 4.1zm26.6 10.1c0 .4 0 .8-.1 1.2 0 .4-.1.8-.2 1.2h-16.6c.4 1.3 1.2 2.3 2.2 3 1 .7 2.2 1.1 3.5 1.1 1.2 0 2.3-.3 3.4-.8s1.9-1.2 2.4-2.1l3.9 2.5c-1 1.5-2.4 2.7-4.1 3.6s-3.6 1.3-5.6 1.3c-1.6 0-3-.3-4.4-.8-1.4-.6-2.6-1.3-3.6-2.3-1-1-1.8-2.1-2.4-3.5s-.9-2.8-.9-4.4.3-3 .9-4.4c.6-1.3 1.4-2.5 2.4-3.5s2.2-1.8 3.6-2.3c1.4-.6 2.8-.8 4.4-.8 1.5 0 3 .3 4.3.9 1.4.6 2.5 1.4 3.6 2.3 1 1 1.8 2.1 2.4 3.5s.9 2.8.9 4.3zm-5.5-2.1c-.4-1.3-1.2-2.3-2.2-3s-2.2-1.1-3.5-1.1c-1.3 0-2.5.4-3.5 1.1-1 .7-1.8 1.8-2.2 3H116zm21.4-2.2c-.6-.6-1.2-1-1.9-1.3s-1.5-.5-2.4-.5-1.6.2-2.4.5-1.4.8-1.9 1.3c-.6.6-1 1.2-1.3 1.9-.3.7-.5 1.5-.5 2.4 0 .8.2 1.6.5 2.4s.8 1.4 1.3 2c.6.6 1.2 1 1.9 1.3.7.3 1.5.5 2.4.5s1.6-.2 2.4-.5c.7-.3 1.4-.8 1.9-1.3l3.5 3.5c-1 1-2.2 1.8-3.5 2.4s-2.8.9-4.3.9c-1.6 0-3.1-.3-4.5-.8-1.4-.6-2.6-1.3-3.6-2.3-1-1-1.8-2.2-2.4-3.5s-.9-2.8-.9-4.4.3-3 .9-4.4c.6-1.3 1.4-2.5 2.4-3.5s2.2-1.8 3.6-2.3c1.4-.6 2.9-.8 4.5-.8 1.5 0 3 .3 4.3.8 1.3.6 2.5 1.4 3.5 2.4l-3.5 3.3z"/></svg>